<?xml version="1.0" encoding="utf-8" standalone="no"?>
<!-- Copyright (c) 2025 DU YU and HE FEIFAN YANG SHASHA - SCHOOL OF ELECTRONIC AND INFORMATION ENGINEERING, LANZHOU JIAOTONG UNIVERSITY -->
<!DOCTYPE svg PUBLIC "-//W3C//DTD SVG 1.1//EN"
  "http://www.w3.org/Graphics/SVG/1.1/DTD/svg11.dtd">
<svg xmlns:xlink="http://www.w3.org/1999/xlink" width="752.4pt" height="432pt" viewBox="0 0 752.4 432" xmlns="http://www.w3.org/2000/svg" version="1.1">
 <metadata>
  <rdf:RDF xmlns:dc="http://purl.org/dc/elements/1.1/" xmlns:cc="http://creativecommons.org/ns#" xmlns:rdf="http://www.w3.org/1999/02/22-rdf-syntax-ns#">
   <cc:Work>
    <dc:type rdf:resource="http://purl.org/dc/dcmitype/StillImage"/>
    <dc:date>2025-09-25T01:14:32.526067</dc:date>
    <dc:format>image/svg+xml</dc:format>
    <dc:creator>
     <cc:Agent>
      <dc:title>Matplotlib v3.9.2, https://matplotlib.org/</dc:title>
     </cc:Agent>
    </dc:creator>
   </cc:Work>
  </rdf:RDF>
 </metadata>
 <defs>
  <style type="text/css">*{stroke-linejoin: round; stroke-linecap: butt}</style>
 </defs>
 <g id="figure_1">
  <g id="patch_1">
   <path d="M 0 432 
L 752.4 432 
L 752.4 0 
L 0 0 
z
" style="fill: #ffffff"/>
  </g>
  <g id="axes_1">
   <g id="patch_2">
    <path d="M 58.289155 390.04 
L 738.326311 390.04 
L 738.326311 25.44 
L 58.289155 25.44 
z
" style="fill: #ffffff"/>
   </g>
   <g id="matplotlib.axis_1">
    <g id="xtick_1">
     <g id="line2d_1">
      <path d="M 87.59418 390.04 
L 87.59418 25.44 
" clip-path="url(#p2b6c32113c)" style="fill: none; stroke-dasharray: 2.96,1.28; stroke-dashoffset: 0; stroke: #b0b0b0; stroke-opacity: 0.6; stroke-width: 0.8"/>
     </g>
     <g id="line2d_2">
      <defs>
       <path id="m472b66c42e" d="M 0 0 
L 0 3.5 
" style="stroke: #000000; stroke-width: 0.8"/>
      </defs>
      <g>
       <use xlink:href="#m472b66c42e" x="87.59418" y="390.04" style="stroke: #000000; stroke-width: 0.8"/>
      </g>
     </g>
     <g id="text_1">
      <!-- 0 -->
      <g transform="translate(84.41293 404.638438) scale(0.1 -0.1)">
       <defs>
        <path id="DejaVuSans-30" d="M 2034 4250 
Q 1547 4250 1301 3770 
Q 1056 3291 1056 2328 
Q 1056 1369 1301 889 
Q 1547 409 2034 409 
Q 2525 409 2770 889 
Q 3016 1369 3016 2328 
Q 3016 3291 2770 3770 
Q 2525 4250 2034 4250 
z
M 2034 4750 
Q 2819 4750 3233 4129 
Q 3647 3509 3647 2328 
Q 3647 1150 3233 529 
Q 2819 -91 2034 -91 
Q 1250 -91 836 529 
Q 422 1150 422 2328 
Q 422 3509 836 4129 
Q 1250 4750 2034 4750 
z
" transform="scale(0.015625)"/>
       </defs>
       <use xlink:href="#DejaVuSans-30"/>
      </g>
     </g>
    </g>
    <g id="xtick_2">
     <g id="line2d_3">
      <path d="M 167.88192 390.04 
L 167.88192 25.44 
" clip-path="url(#p2b6c32113c)" style="fill: none; stroke-dasharray: 2.96,1.28; stroke-dashoffset: 0; stroke: #b0b0b0; stroke-opacity: 0.6; stroke-width: 0.8"/>
     </g>
     <g id="line2d_4">
      <g>
       <use xlink:href="#m472b66c42e" x="167.88192" y="390.04" style="stroke: #000000; stroke-width: 0.8"/>
      </g>
     </g>
     <g id="text_2">
      <!-- 50 -->
      <g transform="translate(161.51942 404.638438) scale(0.1 -0.1)">
       <defs>
        <path id="DejaVuSans-35" d="M 691 4666 
L 3169 4666 
L 3169 4134 
L 1269 4134 
L 1269 2991 
Q 1406 3038 1543 3061 
Q 1681 3084 1819 3084 
Q 2600 3084 3056 2656 
Q 3513 2228 3513 1497 
Q 3513 744 3044 326 
Q 2575 -91 1722 -91 
Q 1428 -91 1123 -41 
Q 819 9 494 109 
L 494 744 
Q 775 591 1075 516 
Q 1375 441 1709 441 
Q 2250 441 2565 725 
Q 2881 1009 2881 1497 
Q 2881 1984 2565 2268 
Q 2250 2553 1709 2553 
Q 1456 2553 1204 2497 
Q 953 2441 691 2322 
L 691 4666 
z
" transform="scale(0.015625)"/>
       </defs>
       <use xlink:href="#DejaVuSans-35"/>
       <use xlink:href="#DejaVuSans-30" x="63.623047"/>
      </g>
     </g>
    </g>
    <g id="xtick_3">
     <g id="line2d_5">
      <path d="M 248.16966 390.04 
L 248.16966 25.44 
" clip-path="url(#p2b6c32113c)" style="fill: none; stroke-dasharray: 2.96,1.28; stroke-dashoffset: 0; stroke: #b0b0b0; stroke-opacity: 0.6; stroke-width: 0.8"/>
     </g>
     <g id="line2d_6">
      <g>
       <use xlink:href="#m472b66c42e" x="248.16966" y="390.04" style="stroke: #000000; stroke-width: 0.8"/>
      </g>
     </g>
     <g id="text_3">
      <!-- 100 -->
      <g transform="translate(238.62591 404.638438) scale(0.1 -0.1)">
       <defs>
        <path id="DejaVuSans-31" d="M 794 531 
L 1825 531 
L 1825 4091 
L 703 3866 
L 703 4441 
L 1819 4666 
L 2450 4666 
L 2450 531 
L 3481 531 
L 3481 0 
L 794 0 
L 794 531 
z
" transform="scale(0.015625)"/>
       </defs>
       <use xlink:href="#DejaVuSans-31"/>
       <use xlink:href="#DejaVuSans-30" x="63.623047"/>
       <use xlink:href="#DejaVuSans-30" x="127.246094"/>
      </g>
     </g>
    </g>
    <g id="xtick_4">
     <g id="line2d_7">
      <path d="M 328.4574 390.04 
L 328.4574 25.44 
" clip-path="url(#p2b6c32113c)" style="fill: none; stroke-dasharray: 2.96,1.28; stroke-dashoffset: 0; stroke: #b0b0b0; stroke-opacity: 0.6; stroke-width: 0.8"/>
     </g>
     <g id="line2d_8">
      <g>
       <use xlink:href="#m472b66c42e" x="328.4574" y="390.04" style="stroke: #000000; stroke-width: 0.8"/>
      </g>
     </g>
     <g id="text_4">
      <!-- 150 -->
      <g transform="translate(318.91365 404.638438) scale(0.1 -0.1)">
       <use xlink:href="#DejaVuSans-31"/>
       <use xlink:href="#DejaVuSans-35" x="63.623047"/>
       <use xlink:href="#DejaVuSans-30" x="127.246094"/>
      </g>
     </g>
    </g>
    <g id="xtick_5">
     <g id="line2d_9">
      <path d="M 408.74514 390.04 
L 408.74514 25.44 
" clip-path="url(#p2b6c32113c)" style="fill: none; stroke-dasharray: 2.96,1.28; stroke-dashoffset: 0; stroke: #b0b0b0; stroke-opacity: 0.6; stroke-width: 0.8"/>
     </g>
     <g id="line2d_10">
      <g>
       <use xlink:href="#m472b66c42e" x="408.74514" y="390.04" style="stroke: #000000; stroke-width: 0.8"/>
      </g>
     </g>
     <g id="text_5">
      <!-- 200 -->
      <g transform="translate(399.20139 404.638438) scale(0.1 -0.1)">
       <defs>
        <path id="DejaVuSans-32" d="M 1228 531 
L 3431 531 
L 3431 0 
L 469 0 
L 469 531 
Q 828 903 1448 1529 
Q 2069 2156 2228 2338 
Q 2531 2678 2651 2914 
Q 2772 3150 2772 3378 
Q 2772 3750 2511 3984 
Q 2250 4219 1831 4219 
Q 1534 4219 1204 4116 
Q 875 4013 500 3803 
L 500 4441 
Q 881 4594 1212 4672 
Q 1544 4750 1819 4750 
Q 2544 4750 2975 4387 
Q 3406 4025 3406 3419 
Q 3406 3131 3298 2873 
Q 3191 2616 2906 2266 
Q 2828 2175 2409 1742 
Q 1991 1309 1228 531 
z
" transform="scale(0.015625)"/>
       </defs>
       <use xlink:href="#DejaVuSans-32"/>
       <use xlink:href="#DejaVuSans-30" x="63.623047"/>
       <use xlink:href="#DejaVuSans-30" x="127.246094"/>
      </g>
     </g>
    </g>
    <g id="xtick_6">
     <g id="line2d_11">
      <path d="M 489.032879 390.04 
L 489.032879 25.44 
" clip-path="url(#p2b6c32113c)" style="fill: none; stroke-dasharray: 2.96,1.28; stroke-dashoffset: 0; stroke: #b0b0b0; stroke-opacity: 0.6; stroke-width: 0.8"/>
     </g>
     <g id="line2d_12">
      <g>
       <use xlink:href="#m472b66c42e" x="489.032879" y="390.04" style="stroke: #000000; stroke-width: 0.8"/>
      </g>
     </g>
     <g id="text_6">
      <!-- 250 -->
      <g transform="translate(479.489129 404.638438) scale(0.1 -0.1)">
       <use xlink:href="#DejaVuSans-32"/>
       <use xlink:href="#DejaVuSans-35" x="63.623047"/>
       <use xlink:href="#DejaVuSans-30" x="127.246094"/>
      </g>
     </g>
    </g>
    <g id="xtick_7">
     <g id="line2d_13">
      <path d="M 569.320619 390.04 
L 569.320619 25.44 
" clip-path="url(#p2b6c32113c)" style="fill: none; stroke-dasharray: 2.96,1.28; stroke-dashoffset: 0; stroke: #b0b0b0; stroke-opacity: 0.6; stroke-width: 0.8"/>
     </g>
     <g id="line2d_14">
      <g>
       <use xlink:href="#m472b66c42e" x="569.320619" y="390.04" style="stroke: #000000; stroke-width: 0.8"/>
      </g>
     </g>
     <g id="text_7">
      <!-- 300 -->
      <g transform="translate(559.776869 404.638438) scale(0.1 -0.1)">
       <defs>
        <path id="DejaVuSans-33" d="M 2597 2516 
Q 3050 2419 3304 2112 
Q 3559 1806 3559 1356 
Q 3559 666 3084 287 
Q 2609 -91 1734 -91 
Q 1441 -91 1130 -33 
Q 819 25 488 141 
L 488 750 
Q 750 597 1062 519 
Q 1375 441 1716 441 
Q 2309 441 2620 675 
Q 2931 909 2931 1356 
Q 2931 1769 2642 2001 
Q 2353 2234 1838 2234 
L 1294 2234 
L 1294 2753 
L 1863 2753 
Q 2328 2753 2575 2939 
Q 2822 3125 2822 3475 
Q 2822 3834 2567 4026 
Q 2313 4219 1838 4219 
Q 1578 4219 1281 4162 
Q 984 4106 628 3988 
L 628 4550 
Q 988 4650 1302 4700 
Q 1616 4750 1894 4750 
Q 2613 4750 3031 4423 
Q 3450 4097 3450 3541 
Q 3450 3153 3228 2886 
Q 3006 2619 2597 2516 
z
" transform="scale(0.015625)"/>
       </defs>
       <use xlink:href="#DejaVuSans-33"/>
       <use xlink:href="#DejaVuSans-30" x="63.623047"/>
       <use xlink:href="#DejaVuSans-30" x="127.246094"/>
      </g>
     </g>
    </g>
    <g id="xtick_8">
     <g id="line2d_15">
      <path d="M 649.608359 390.04 
L 649.608359 25.44 
" clip-path="url(#p2b6c32113c)" style="fill: none; stroke-dasharray: 2.96,1.28; stroke-dashoffset: 0; stroke: #b0b0b0; stroke-opacity: 0.6; stroke-width: 0.8"/>
     </g>
     <g id="line2d_16">
      <g>
       <use xlink:href="#m472b66c42e" x="649.608359" y="390.04" style="stroke: #000000; stroke-width: 0.8"/>
      </g>
     </g>
     <g id="text_8">
      <!-- 350 -->
      <g transform="translate(640.064609 404.638438) scale(0.1 -0.1)">
       <use xlink:href="#DejaVuSans-33"/>
       <use xlink:href="#DejaVuSans-35" x="63.623047"/>
       <use xlink:href="#DejaVuSans-30" x="127.246094"/>
      </g>
     </g>
    </g>
    <g id="xtick_9">
     <g id="line2d_17">
      <path d="M 729.896099 390.04 
L 729.896099 25.44 
" clip-path="url(#p2b6c32113c)" style="fill: none; stroke-dasharray: 2.96,1.28; stroke-dashoffset: 0; stroke: #b0b0b0; stroke-opacity: 0.6; stroke-width: 0.8"/>
     </g>
     <g id="line2d_18">
      <g>
       <use xlink:href="#m472b66c42e" x="729.896099" y="390.04" style="stroke: #000000; stroke-width: 0.8"/>
      </g>
     </g>
     <g id="text_9">
      <!-- 400 -->
      <g transform="translate(720.352349 404.638438) scale(0.1 -0.1)">
       <defs>
        <path id="DejaVuSans-34" d="M 2419 4116 
L 825 1625 
L 2419 1625 
L 2419 4116 
z
M 2253 4666 
L 3047 4666 
L 3047 1625 
L 3713 1625 
L 3713 1100 
L 3047 1100 
L 3047 0 
L 2419 0 
L 2419 1100 
L 313 1100 
L 313 1709 
L 2253 4666 
z
" transform="scale(0.015625)"/>
       </defs>
       <use xlink:href="#DejaVuSans-34"/>
       <use xlink:href="#DejaVuSans-30" x="63.623047"/>
       <use xlink:href="#DejaVuSans-30" x="127.246094"/>
      </g>
     </g>
    </g>
    <g id="text_10">
     <!-- Epoch -->
     <g transform="translate(382.996796 418.316562) scale(0.1 -0.1)">
      <defs>
       <path id="DejaVuSans-45" d="M 628 4666 
L 3578 4666 
L 3578 4134 
L 1259 4134 
L 1259 2753 
L 3481 2753 
L 3481 2222 
L 1259 2222 
L 1259 531 
L 3634 531 
L 3634 0 
L 628 0 
L 628 4666 
z
" transform="scale(0.015625)"/>
       <path id="DejaVuSans-70" d="M 1159 525 
L 1159 -1331 
L 581 -1331 
L 581 3500 
L 1159 3500 
L 1159 2969 
Q 1341 3281 1617 3432 
Q 1894 3584 2278 3584 
Q 2916 3584 3314 3078 
Q 3713 2572 3713 1747 
Q 3713 922 3314 415 
Q 2916 -91 2278 -91 
Q 1894 -91 1617 61 
Q 1341 213 1159 525 
z
M 3116 1747 
Q 3116 2381 2855 2742 
Q 2594 3103 2138 3103 
Q 1681 3103 1420 2742 
Q 1159 2381 1159 1747 
Q 1159 1113 1420 752 
Q 1681 391 2138 391 
Q 2594 391 2855 752 
Q 3116 1113 3116 1747 
z
" transform="scale(0.015625)"/>
       <path id="DejaVuSans-6f" d="M 1959 3097 
Q 1497 3097 1228 2736 
Q 959 2375 959 1747 
Q 959 1119 1226 758 
Q 1494 397 1959 397 
Q 2419 397 2687 759 
Q 2956 1122 2956 1747 
Q 2956 2369 2687 2733 
Q 2419 3097 1959 3097 
z
M 1959 3584 
Q 2709 3584 3137 3096 
Q 3566 2609 3566 1747 
Q 3566 888 3137 398 
Q 2709 -91 1959 -91 
Q 1206 -91 779 398 
Q 353 888 353 1747 
Q 353 2609 779 3096 
Q 1206 3584 1959 3584 
z
" transform="scale(0.015625)"/>
       <path id="DejaVuSans-63" d="M 3122 3366 
L 3122 2828 
Q 2878 2963 2633 3030 
Q 2388 3097 2138 3097 
Q 1578 3097 1268 2742 
Q 959 2388 959 1747 
Q 959 1106 1268 751 
Q 1578 397 2138 397 
Q 2388 397 2633 464 
Q 2878 531 3122 666 
L 3122 134 
Q 2881 22 2623 -34 
Q 2366 -91 2075 -91 
Q 1284 -91 818 406 
Q 353 903 353 1747 
Q 353 2603 823 3093 
Q 1294 3584 2113 3584 
Q 2378 3584 2631 3529 
Q 2884 3475 3122 3366 
z
" transform="scale(0.015625)"/>
       <path id="DejaVuSans-68" d="M 3513 2113 
L 3513 0 
L 2938 0 
L 2938 2094 
Q 2938 2591 2744 2837 
Q 2550 3084 2163 3084 
Q 1697 3084 1428 2787 
Q 1159 2491 1159 1978 
L 1159 0 
L 581 0 
L 581 4863 
L 1159 4863 
L 1159 2956 
Q 1366 3272 1645 3428 
Q 1925 3584 2291 3584 
Q 2894 3584 3203 3211 
Q 3513 2838 3513 2113 
z
" transform="scale(0.015625)"/>
      </defs>
      <use xlink:href="#DejaVuSans-45"/>
      <use xlink:href="#DejaVuSans-70" x="63.183594"/>
      <use xlink:href="#DejaVuSans-6f" x="126.660156"/>
      <use xlink:href="#DejaVuSans-63" x="187.841797"/>
      <use xlink:href="#DejaVuSans-68" x="242.822266"/>
     </g>
    </g>
   </g>
   <g id="matplotlib.axis_2">
    <g id="ytick_1">
     <g id="line2d_19">
      <path d="M 58.289155 353.408312 
L 738.326311 353.408312 
" clip-path="url(#p2b6c32113c)" style="fill: none; stroke-dasharray: 2.96,1.28; stroke-dashoffset: 0; stroke: #b0b0b0; stroke-opacity: 0.6; stroke-width: 0.8"/>
     </g>
     <g id="line2d_20">
      <defs>
       <path id="m0a955e213e" d="M 0 0 
L -3.5 0 
" style="stroke: #000000; stroke-width: 0.8"/>
      </defs>
      <g>
       <use xlink:href="#m0a955e213e" x="58.289155" y="353.408312" style="stroke: #000000; stroke-width: 0.8"/>
      </g>
     </g>
     <g id="text_11">
      <!-- $\mathdefault{10^{-2}}$ -->
      <g transform="translate(27.789155 357.207531) scale(0.1 -0.1)">
       <defs>
        <path id="DejaVuSans-2212" d="M 678 2272 
L 4684 2272 
L 4684 1741 
L 678 1741 
L 678 2272 
z
" transform="scale(0.015625)"/>
       </defs>
       <use xlink:href="#DejaVuSans-31" transform="translate(0 0.765625)"/>
       <use xlink:href="#DejaVuSans-30" transform="translate(63.623047 0.765625)"/>
       <use xlink:href="#DejaVuSans-2212" transform="translate(128.203125 39.046875) scale(0.7)"/>
       <use xlink:href="#DejaVuSans-32" transform="translate(186.855469 39.046875) scale(0.7)"/>
      </g>
     </g>
    </g>
    <g id="ytick_2">
     <g id="line2d_21">
      <path d="M 58.289155 233.646951 
L 738.326311 233.646951 
" clip-path="url(#p2b6c32113c)" style="fill: none; stroke-dasharray: 2.96,1.28; stroke-dashoffset: 0; stroke: #b0b0b0; stroke-opacity: 0.6; stroke-width: 0.8"/>
     </g>
     <g id="line2d_22">
      <g>
       <use xlink:href="#m0a955e213e" x="58.289155" y="233.646951" style="stroke: #000000; stroke-width: 0.8"/>
      </g>
     </g>
     <g id="text_12">
      <!-- $\mathdefault{10^{-1}}$ -->
      <g transform="translate(27.789155 237.446169) scale(0.1 -0.1)">
       <use xlink:href="#DejaVuSans-31" transform="translate(0 0.684375)"/>
       <use xlink:href="#DejaVuSans-30" transform="translate(63.623047 0.684375)"/>
       <use xlink:href="#DejaVuSans-2212" transform="translate(128.203125 38.965625) scale(0.7)"/>
       <use xlink:href="#DejaVuSans-31" transform="translate(186.855469 38.965625) scale(0.7)"/>
      </g>
     </g>
    </g>
    <g id="ytick_3">
     <g id="line2d_23">
      <path d="M 58.289155 113.885589 
L 738.326311 113.885589 
" clip-path="url(#p2b6c32113c)" style="fill: none; stroke-dasharray: 2.96,1.28; stroke-dashoffset: 0; stroke: #b0b0b0; stroke-opacity: 0.6; stroke-width: 0.8"/>
     </g>
     <g id="line2d_24">
      <g>
       <use xlink:href="#m0a955e213e" x="58.289155" y="113.885589" style="stroke: #000000; stroke-width: 0.8"/>
      </g>
     </g>
     <g id="text_13">
      <!-- $\mathdefault{10^{0}}$ -->
      <g transform="translate(33.689155 117.684808) scale(0.1 -0.1)">
       <use xlink:href="#DejaVuSans-31" transform="translate(0 0.765625)"/>
       <use xlink:href="#DejaVuSans-30" transform="translate(63.623047 0.765625)"/>
       <use xlink:href="#DejaVuSans-30" transform="translate(128.203125 39.046875) scale(0.7)"/>
      </g>
     </g>
    </g>
    <g id="ytick_4">
     <g id="line2d_25">
      <defs>
       <path id="m24633af354" d="M 0 0 
L -2 0 
" style="stroke: #000000; stroke-width: 0.6"/>
      </defs>
      <g>
       <use xlink:href="#m24633af354" x="58.289155" y="389.460074" style="stroke: #000000; stroke-width: 0.6"/>
      </g>
     </g>
    </g>
    <g id="ytick_5">
     <g id="line2d_26">
      <g>
       <use xlink:href="#m24633af354" x="58.289155" y="379.97722" style="stroke: #000000; stroke-width: 0.6"/>
      </g>
     </g>
    </g>
    <g id="ytick_6">
     <g id="line2d_27">
      <g>
       <use xlink:href="#m24633af354" x="58.289155" y="371.959582" style="stroke: #000000; stroke-width: 0.6"/>
      </g>
     </g>
    </g>
    <g id="ytick_7">
     <g id="line2d_28">
      <g>
       <use xlink:href="#m24633af354" x="58.289155" y="365.014387" style="stroke: #000000; stroke-width: 0.6"/>
      </g>
     </g>
    </g>
    <g id="ytick_8">
     <g id="line2d_29">
      <g>
       <use xlink:href="#m24633af354" x="58.289155" y="358.888291" style="stroke: #000000; stroke-width: 0.6"/>
      </g>
     </g>
    </g>
    <g id="ytick_9">
     <g id="line2d_30">
      <g>
       <use xlink:href="#m24633af354" x="58.289155" y="317.35655" style="stroke: #000000; stroke-width: 0.6"/>
      </g>
     </g>
    </g>
    <g id="ytick_10">
     <g id="line2d_31">
      <g>
       <use xlink:href="#m24633af354" x="58.289155" y="296.267621" style="stroke: #000000; stroke-width: 0.6"/>
      </g>
     </g>
    </g>
    <g id="ytick_11">
     <g id="line2d_32">
      <g>
       <use xlink:href="#m24633af354" x="58.289155" y="281.304788" style="stroke: #000000; stroke-width: 0.6"/>
      </g>
     </g>
    </g>
    <g id="ytick_12">
     <g id="line2d_33">
      <g>
       <use xlink:href="#m24633af354" x="58.289155" y="269.698713" style="stroke: #000000; stroke-width: 0.6"/>
      </g>
     </g>
    </g>
    <g id="ytick_13">
     <g id="line2d_34">
      <g>
       <use xlink:href="#m24633af354" x="58.289155" y="260.215859" style="stroke: #000000; stroke-width: 0.6"/>
      </g>
     </g>
    </g>
    <g id="ytick_14">
     <g id="line2d_35">
      <g>
       <use xlink:href="#m24633af354" x="58.289155" y="252.19822" style="stroke: #000000; stroke-width: 0.6"/>
      </g>
     </g>
    </g>
    <g id="ytick_15">
     <g id="line2d_36">
      <g>
       <use xlink:href="#m24633af354" x="58.289155" y="245.253026" style="stroke: #000000; stroke-width: 0.6"/>
      </g>
     </g>
    </g>
    <g id="ytick_16">
     <g id="line2d_37">
      <g>
       <use xlink:href="#m24633af354" x="58.289155" y="239.12693" style="stroke: #000000; stroke-width: 0.6"/>
      </g>
     </g>
    </g>
    <g id="ytick_17">
     <g id="line2d_38">
      <g>
       <use xlink:href="#m24633af354" x="58.289155" y="197.595188" style="stroke: #000000; stroke-width: 0.6"/>
      </g>
     </g>
    </g>
    <g id="ytick_18">
     <g id="line2d_39">
      <g>
       <use xlink:href="#m24633af354" x="58.289155" y="176.506259" style="stroke: #000000; stroke-width: 0.6"/>
      </g>
     </g>
    </g>
    <g id="ytick_19">
     <g id="line2d_40">
      <g>
       <use xlink:href="#m24633af354" x="58.289155" y="161.543426" style="stroke: #000000; stroke-width: 0.6"/>
      </g>
     </g>
    </g>
    <g id="ytick_20">
     <g id="line2d_41">
      <g>
       <use xlink:href="#m24633af354" x="58.289155" y="149.937351" style="stroke: #000000; stroke-width: 0.6"/>
      </g>
     </g>
    </g>
    <g id="ytick_21">
     <g id="line2d_42">
      <g>
       <use xlink:href="#m24633af354" x="58.289155" y="140.454497" style="stroke: #000000; stroke-width: 0.6"/>
      </g>
     </g>
    </g>
    <g id="ytick_22">
     <g id="line2d_43">
      <g>
       <use xlink:href="#m24633af354" x="58.289155" y="132.436859" style="stroke: #000000; stroke-width: 0.6"/>
      </g>
     </g>
    </g>
    <g id="ytick_23">
     <g id="line2d_44">
      <g>
       <use xlink:href="#m24633af354" x="58.289155" y="125.491664" style="stroke: #000000; stroke-width: 0.6"/>
      </g>
     </g>
    </g>
    <g id="ytick_24">
     <g id="line2d_45">
      <g>
       <use xlink:href="#m24633af354" x="58.289155" y="119.365568" style="stroke: #000000; stroke-width: 0.6"/>
      </g>
     </g>
    </g>
    <g id="ytick_25">
     <g id="line2d_46">
      <g>
       <use xlink:href="#m24633af354" x="58.289155" y="77.833827" style="stroke: #000000; stroke-width: 0.6"/>
      </g>
     </g>
    </g>
    <g id="ytick_26">
     <g id="line2d_47">
      <g>
       <use xlink:href="#m24633af354" x="58.289155" y="56.744898" style="stroke: #000000; stroke-width: 0.6"/>
      </g>
     </g>
    </g>
    <g id="ytick_27">
     <g id="line2d_48">
      <g>
       <use xlink:href="#m24633af354" x="58.289155" y="41.782065" style="stroke: #000000; stroke-width: 0.6"/>
      </g>
     </g>
    </g>
    <g id="ytick_28">
     <g id="line2d_49">
      <g>
       <use xlink:href="#m24633af354" x="58.289155" y="30.17599" style="stroke: #000000; stroke-width: 0.6"/>
      </g>
     </g>
    </g>
    <g id="text_14">
     <!-- Loss -->
     <g transform="translate(21.709468 218.707188) rotate(-90) scale(0.1 -0.1)">
      <defs>
       <path id="DejaVuSans-4c" d="M 628 4666 
L 1259 4666 
L 1259 531 
L 3531 531 
L 3531 0 
L 628 0 
L 628 4666 
z
" transform="scale(0.015625)"/>
       <path id="DejaVuSans-73" d="M 2834 3397 
L 2834 2853 
Q 2591 2978 2328 3040 
Q 2066 3103 1784 3103 
Q 1356 3103 1142 2972 
Q 928 2841 928 2578 
Q 928 2378 1081 2264 
Q 1234 2150 1697 2047 
L 1894 2003 
Q 2506 1872 2764 1633 
Q 3022 1394 3022 966 
Q 3022 478 2636 193 
Q 2250 -91 1575 -91 
Q 1294 -91 989 -36 
Q 684 19 347 128 
L 347 722 
Q 666 556 975 473 
Q 1284 391 1588 391 
Q 1994 391 2212 530 
Q 2431 669 2431 922 
Q 2431 1156 2273 1281 
Q 2116 1406 1581 1522 
L 1381 1569 
Q 847 1681 609 1914 
Q 372 2147 372 2553 
Q 372 3047 722 3315 
Q 1072 3584 1716 3584 
Q 2034 3584 2315 3537 
Q 2597 3491 2834 3397 
z
" transform="scale(0.015625)"/>
      </defs>
      <use xlink:href="#DejaVuSans-4c"/>
      <use xlink:href="#DejaVuSans-6f" x="53.962891"/>
      <use xlink:href="#DejaVuSans-73" x="115.144531"/>
      <use xlink:href="#DejaVuSans-73" x="167.244141"/>
     </g>
    </g>
   </g>
   <g id="line2d_50">
    <path d="M 89.199935 42.012727 
L 90.80569 208.298931 
L 92.411445 243.526603 
L 94.0172 260.215859 
L 95.622954 270.432022 
L 97.228709 275.294402 
L 98.834464 280.916156 
L 100.440219 283.563633 
L 102.045974 286.496613 
L 103.651728 288.847825 
L 105.257483 290.218637 
L 106.863238 291.310377 
L 108.468993 292.104464 
L 110.074748 293.895341 
L 111.680502 292.74858 
L 113.286257 294.227685 
L 114.892012 295.067957 
L 116.497767 297.673428 
L 118.103522 297.49561 
L 119.709276 297.851856 
L 121.315031 299.301753 
L 122.920786 299.485866 
L 124.526541 298.210559 
L 126.132296 299.485866 
L 127.73805 299.485866 
L 129.343805 300.228903 
L 130.94956 300.228903 
L 132.555315 299.856057 
L 134.16107 296.965775 
L 135.766824 300.60444 
L 137.372579 297.318398 
L 138.978334 300.793231 
L 140.584089 302.328743 
L 142.189844 303.91097 
L 143.795598 302.916452 
L 145.401353 303.31198 
L 147.007108 302.71981 
L 148.612863 303.510878 
L 150.218618 304.112176 
L 151.824372 305.336037 
L 153.430127 304.314163 
L 155.035882 303.31198 
" clip-path="url(#p2b6c32113c)" style="fill: none; stroke: #0000ff; stroke-width: 1.5; stroke-linecap: square"/>
   </g>
   <g id="line2d_51">
    <path d="M 156.641637 107.856673 
L 158.247391 112.942379 
L 159.853146 115.970899 
L 161.458901 119.313583 
L 163.064656 118.62536 
L 164.670411 122.497813 
L 166.276165 125.096579 
L 167.88192 126.948707 
L 169.487675 128.282847 
L 171.09343 129.821417 
L 174.304939 133.998119 
L 175.910694 136.556072 
L 177.516449 135.813435 
L 179.122204 142.631926 
L 180.727959 143.562197 
L 182.333713 148.724135 
L 183.939468 146.652158 
L 185.545223 153.723063 
L 188.756733 160.730626 
L 190.362487 164.858592 
L 191.968242 170.534501 
L 193.573997 171.156472 
L 195.179752 177.983364 
L 198.391261 184.229997 
L 199.997016 188.46024 
L 201.602771 188.047361 
L 203.208526 195.430374 
L 204.814281 196.488789 
L 206.420035 199.962788 
L 209.631545 209.592821 
L 211.2373 167.765507 
L 212.843055 204.39199 
L 214.448809 214.249608 
L 216.054564 211.66421 
L 217.660319 225.303404 
L 219.266074 222.500604 
L 220.871829 225.480919 
L 222.477583 228.879184 
L 224.083338 233.439319 
L 225.689093 231.958277 
L 227.294848 237.253966 
L 228.900602 238.324087 
L 230.506357 240.711165 
L 232.112112 241.733984 
L 233.717867 237.645664 
L 235.323622 240.830458 
L 236.929376 245.123159 
L 238.535131 250.805294 
L 240.140886 243.275641 
L 241.746641 251.901856 
L 243.352396 250.444851 
L 244.95815 254.866072 
L 246.563905 258.678455 
L 248.16966 261.621666 
L 249.775415 261.001945 
L 251.38117 266.668048 
L 252.986924 262.33908 
L 254.592679 267.062078 
L 256.198434 267.55885 
L 257.804189 271.282948 
L 259.409944 275.41037 
L 261.015698 268.161309 
L 262.621453 260.215859 
L 264.227208 269.491081 
L 265.832963 280.916156 
L 267.438718 282.488417 
L 269.044472 285.783135 
L 270.650227 287.806068 
L 272.255982 282.355565 
L 273.861737 285.219317 
L 275.467492 287.220014 
L 277.073246 293.729962 
L 278.679001 289.604922 
L 280.284756 289.300759 
L 281.890511 288.548044 
L 283.496266 284.661546 
L 285.10202 298.753295 
L 286.707775 297.141788 
L 288.31353 300.042146 
L 289.919285 284.661546 
L 291.52504 217.235158 
L 293.130794 288.697719 
L 294.736549 291.626558 
L 296.342304 299.485866 
L 297.948059 301.17288 
L 299.553813 300.60444 
L 301.159568 300.416332 
L 302.765323 293.073654 
L 304.371078 303.91097 
L 305.976833 306.37839 
L 307.582587 303.11384 
L 309.188342 307.22758 
L 310.794097 301.55532 
L 312.399852 304.112176 
L 314.005607 299.485866 
L 315.611361 304.924875 
L 317.217116 308.308943 
L 318.822871 314.571804 
L 320.428626 317.879285 
L 322.034381 311.230454 
L 325.24589 315.819146 
L 326.851645 315.316614 
L 328.4574 315.819146 
L 330.063155 316.072245 
L 331.668909 310.999803 
L 333.274664 307.657431 
L 334.880419 316.072245 
L 336.486174 317.879285 
L 338.091929 307.657431 
L 339.697683 315.567273 
L 341.303438 317.097139 
L 342.909193 325.809435 
L 344.514948 319.751373 
L 346.120703 325.201105 
L 347.726457 325.201105 
L 349.332212 319.751373 
L 350.937967 325.809435 
L 352.543722 322.836529 
L 354.149477 325.504381 
L 355.755231 329.616869 
L 357.360986 333.017537 
L 358.966741 327.362139 
L 360.572496 332.319383 
L 362.178251 333.017537 
L 363.784005 337.034471 
L 365.38976 335.170053 
L 366.995515 333.72519 
L 368.60127 326.11629 
L 370.207024 329.616869 
L 371.812779 327.362139 
L 373.418534 331.630476 
L 375.024289 331.289415 
L 376.630044 334.805057 
L 378.235798 340.5687 
L 379.841553 330.279447 
L 381.447308 333.37016 
L 383.053063 333.017537 
L 384.658818 337.799363 
L 386.264572 339.762301 
L 387.870327 338.575671 
L 389.476082 338.968214 
L 391.081837 340.976637 
L 392.687592 333.37016 
L 394.293346 340.5687 
L 395.899101 338.968214 
L 397.504856 343.493823 
L 399.110611 342.641154 
L 400.716366 340.163938 
L 402.32212 338.186068 
L 403.927875 344.360705 
L 405.53363 338.968214 
L 407.139385 341.802237 
L 408.74514 340.976637 
L 410.350894 341.802237 
L 411.956649 344.799625 
L 413.562404 348.926064 
L 415.168159 344.799625 
L 416.773914 345.24228 
L 418.379668 348.926064 
L 419.985423 338.575671 
L 421.591178 347.513895 
L 423.196933 350.377647 
L 424.802688 350.377647 
L 426.408442 345.24228 
L 428.014197 350.870653 
L 429.619952 348.926064 
L 431.225707 347.513895 
L 432.831462 353.931047 
L 434.437216 349.405438 
L 436.042971 347.051565 
L 437.648726 347.98037 
L 439.254481 353.408312 
L 440.860235 347.513895 
L 442.46599 349.889271 
L 444.071745 350.377647 
L 445.6775 349.405438 
L 447.283255 351.870909 
L 448.889009 346.59331 
L 450.494764 350.870653 
L 452.100519 353.408312 
L 453.706274 350.870653 
L 455.312029 354.992547 
L 456.917783 356.626557 
L 458.523538 357.182837 
L 460.129293 353.408312 
L 461.735048 351.870909 
L 463.340803 356.626557 
L 464.946557 362.476728 
L 466.552312 353.931047 
L 469.763822 358.313571 
L 471.369577 356.076163 
L 472.975331 354.992547 
L 474.581086 344.360705 
L 476.186841 359.469434 
L 477.792596 356.076163 
L 479.398351 357.745131 
L 481.004105 351.870909 
L 482.60986 345.24228 
L 484.215615 361.252867 
L 485.82137 360.057143 
L 487.427125 357.182837 
L 489.032879 362.476728 
L 490.638634 356.626557 
L 492.244389 353.931047 
L 493.850144 362.476728 
L 495.455899 361.861198 
L 497.061653 357.182837 
L 498.667408 358.888291 
L 500.273163 359.469434 
L 503.484673 367.002337 
L 505.090427 357.745131 
L 506.696182 361.861198 
L 508.301937 361.861198 
L 509.907692 357.182837 
L 511.513446 353.931047 
L 513.119201 356.626557 
L 514.724956 363.730082 
L 516.330711 361.861198 
L 517.936466 362.476728 
L 519.54222 361.861198 
L 521.147975 365.014387 
L 522.75373 360.057143 
L 524.359485 357.182837 
L 525.96524 365.014387 
L 527.570994 358.888291 
L 529.176749 361.861198 
L 530.782504 361.252867 
L 532.388259 358.888291 
L 533.994014 363.09963 
L 535.599768 363.730082 
L 537.205523 361.861198 
L 538.811278 362.476728 
L 540.417033 358.888291 
L 542.022788 358.888291 
L 543.628542 363.730082 
L 545.234297 358.313571 
L 546.840052 368.371145 
L 548.445807 365.014387 
L 550.051562 363.09963 
L 551.657316 357.745131 
L 553.263071 360.057143 
L 554.868826 367.682239 
L 556.474581 365.668631 
L 558.080336 367.682239 
L 559.68609 363.730082 
L 561.291845 363.730082 
L 562.8976 370.494367 
L 564.503355 360.057143 
L 566.10911 367.002337 
L 567.714864 363.09963 
L 569.320619 364.368271 
L 570.926374 367.682239 
L 572.532129 367.002337 
L 574.137884 360.651569 
L 575.743638 367.002337 
L 577.349393 365.668631 
L 578.955148 361.861198 
L 580.560903 367.002337 
L 582.166658 366.331209 
L 583.772412 361.861198 
L 585.378167 371.221815 
L 586.983922 363.730082 
L 588.589677 360.651569 
L 590.195431 361.252867 
L 591.801186 369.776952 
L 593.406941 367.682239 
L 595.012696 360.057143 
L 596.618451 365.668631 
L 598.224205 358.313571 
L 599.82996 365.014387 
L 601.435715 363.09963 
L 603.04147 367.002337 
L 604.647225 364.368271 
L 606.252979 365.668631 
L 607.858734 366.331209 
L 609.464489 361.861198 
L 611.070244 367.002337 
L 612.675999 368.371145 
L 614.281753 366.331209 
L 615.887508 360.057143 
L 617.493263 365.014387 
L 619.099018 362.476728 
L 622.310527 365.014387 
L 625.522037 365.014387 
L 627.127792 368.371145 
L 628.733547 373.467273 
L 630.339301 367.002337 
L 631.945056 369.776952 
L 633.550811 367.682239 
L 635.156566 368.371145 
L 636.762321 363.730082 
L 638.368075 369.069299 
L 639.97383 365.668631 
L 641.579585 360.057143 
L 643.18534 365.668631 
L 644.791095 366.331209 
L 646.396849 363.730082 
L 648.002604 371.221815 
L 649.608359 370.494367 
L 651.214114 365.668631 
L 652.819869 357.745131 
L 654.425623 365.014387 
L 656.031378 361.252867 
L 657.637133 365.668631 
L 659.242888 371.959582 
L 660.848642 363.09963 
L 662.454397 363.09963 
L 664.060152 363.730082 
L 665.665907 371.959582 
L 667.271662 369.776952 
L 668.877416 365.668631 
L 670.483171 370.494367 
L 672.088926 366.331209 
L 673.694681 367.682239 
L 675.300436 361.861198 
L 676.90619 367.682239 
L 678.511945 365.668631 
L 680.1177 367.002337 
L 681.723455 363.730082 
L 683.32921 368.371145 
L 684.934964 367.002337 
L 686.540719 371.959582 
L 688.146474 360.057143 
L 689.752229 367.682239 
L 692.963738 363.730082 
L 694.569493 370.494367 
L 696.175248 362.476728 
L 697.781003 367.682239 
L 699.386758 366.331209 
L 700.992512 366.331209 
L 702.598267 368.371145 
L 704.204022 367.002337 
L 705.809777 363.09963 
L 707.415532 363.730082 
L 707.415532 363.730082 
" clip-path="url(#p2b6c32113c)" style="fill: none; stroke: #ff0000; stroke-width: 1.5; stroke-linecap: square"/>
   </g>
   <g id="patch_3">
    <path d="M 58.289155 390.04 
L 58.289155 25.44 
" style="fill: none; stroke: #000000; stroke-width: 0.8; stroke-linejoin: miter; stroke-linecap: square"/>
   </g>
   <g id="patch_4">
    <path d="M 738.326311 390.04 
L 738.326311 25.44 
" style="fill: none; stroke: #000000; stroke-width: 0.8; stroke-linejoin: miter; stroke-linecap: square"/>
   </g>
   <g id="patch_5">
    <path d="M 58.289155 390.04 
L 738.326311 390.04 
" style="fill: none; stroke: #000000; stroke-width: 0.8; stroke-linejoin: miter; stroke-linecap: square"/>
   </g>
   <g id="patch_6">
    <path d="M 58.289155 25.44 
L 738.326311 25.44 
" style="fill: none; stroke: #000000; stroke-width: 0.8; stroke-linejoin: miter; stroke-linecap: square"/>
   </g>
   <g id="text_15">
    <!-- Training Loss Curve -->
    <g transform="translate(339.960546 19.44) scale(0.12 -0.12)">
     <defs>
      <path id="DejaVuSans-54" d="M -19 4666 
L 3928 4666 
L 3928 4134 
L 2272 4134 
L 2272 0 
L 1638 0 
L 1638 4134 
L -19 4134 
L -19 4666 
z
" transform="scale(0.015625)"/>
      <path id="DejaVuSans-72" d="M 2631 2963 
Q 2534 3019 2420 3045 
Q 2306 3072 2169 3072 
Q 1681 3072 1420 2755 
Q 1159 2438 1159 1844 
L 1159 0 
L 581 0 
L 581 3500 
L 1159 3500 
L 1159 2956 
Q 1341 3275 1631 3429 
Q 1922 3584 2338 3584 
Q 2397 3584 2469 3576 
Q 2541 3569 2628 3553 
L 2631 2963 
z
" transform="scale(0.015625)"/>
      <path id="DejaVuSans-61" d="M 2194 1759 
Q 1497 1759 1228 1600 
Q 959 1441 959 1056 
Q 959 750 1161 570 
Q 1363 391 1709 391 
Q 2188 391 2477 730 
Q 2766 1069 2766 1631 
L 2766 1759 
L 2194 1759 
z
M 3341 1997 
L 3341 0 
L 2766 0 
L 2766 531 
Q 2569 213 2275 61 
Q 1981 -91 1556 -91 
Q 1019 -91 701 211 
Q 384 513 384 1019 
Q 384 1609 779 1909 
Q 1175 2209 1959 2209 
L 2766 2209 
L 2766 2266 
Q 2766 2663 2505 2880 
Q 2244 3097 1772 3097 
Q 1472 3097 1187 3025 
Q 903 2953 641 2809 
L 641 3341 
Q 956 3463 1253 3523 
Q 1550 3584 1831 3584 
Q 2591 3584 2966 3190 
Q 3341 2797 3341 1997 
z
" transform="scale(0.015625)"/>
      <path id="DejaVuSans-69" d="M 603 3500 
L 1178 3500 
L 1178 0 
L 603 0 
L 603 3500 
z
M 603 4863 
L 1178 4863 
L 1178 4134 
L 603 4134 
L 603 4863 
z
" transform="scale(0.015625)"/>
      <path id="DejaVuSans-6e" d="M 3513 2113 
L 3513 0 
L 2938 0 
L 2938 2094 
Q 2938 2591 2744 2837 
Q 2550 3084 2163 3084 
Q 1697 3084 1428 2787 
Q 1159 2491 1159 1978 
L 1159 0 
L 581 0 
L 581 3500 
L 1159 3500 
L 1159 2956 
Q 1366 3272 1645 3428 
Q 1925 3584 2291 3584 
Q 2894 3584 3203 3211 
Q 3513 2838 3513 2113 
z
" transform="scale(0.015625)"/>
      <path id="DejaVuSans-67" d="M 2906 1791 
Q 2906 2416 2648 2759 
Q 2391 3103 1925 3103 
Q 1463 3103 1205 2759 
Q 947 2416 947 1791 
Q 947 1169 1205 825 
Q 1463 481 1925 481 
Q 2391 481 2648 825 
Q 2906 1169 2906 1791 
z
M 3481 434 
Q 3481 -459 3084 -895 
Q 2688 -1331 1869 -1331 
Q 1566 -1331 1297 -1286 
Q 1028 -1241 775 -1147 
L 775 -588 
Q 1028 -725 1275 -790 
Q 1522 -856 1778 -856 
Q 2344 -856 2625 -561 
Q 2906 -266 2906 331 
L 2906 616 
Q 2728 306 2450 153 
Q 2172 0 1784 0 
Q 1141 0 747 490 
Q 353 981 353 1791 
Q 353 2603 747 3093 
Q 1141 3584 1784 3584 
Q 2172 3584 2450 3431 
Q 2728 3278 2906 2969 
L 2906 3500 
L 3481 3500 
L 3481 434 
z
" transform="scale(0.015625)"/>
      <path id="DejaVuSans-20" transform="scale(0.015625)"/>
      <path id="DejaVuSans-43" d="M 4122 4306 
L 4122 3641 
Q 3803 3938 3442 4084 
Q 3081 4231 2675 4231 
Q 1875 4231 1450 3742 
Q 1025 3253 1025 2328 
Q 1025 1406 1450 917 
Q 1875 428 2675 428 
Q 3081 428 3442 575 
Q 3803 722 4122 1019 
L 4122 359 
Q 3791 134 3420 21 
Q 3050 -91 2638 -91 
Q 1578 -91 968 557 
Q 359 1206 359 2328 
Q 359 3453 968 4101 
Q 1578 4750 2638 4750 
Q 3056 4750 3426 4639 
Q 3797 4528 4122 4306 
z
" transform="scale(0.015625)"/>
      <path id="DejaVuSans-75" d="M 544 1381 
L 544 3500 
L 1119 3500 
L 1119 1403 
Q 1119 906 1312 657 
Q 1506 409 1894 409 
Q 2359 409 2629 706 
Q 2900 1003 2900 1516 
L 2900 3500 
L 3475 3500 
L 3475 0 
L 2900 0 
L 2900 538 
Q 2691 219 2414 64 
Q 2138 -91 1772 -91 
Q 1169 -91 856 284 
Q 544 659 544 1381 
z
M 1991 3584 
L 1991 3584 
z
" transform="scale(0.015625)"/>
      <path id="DejaVuSans-76" d="M 191 3500 
L 800 3500 
L 1894 563 
L 2988 3500 
L 3597 3500 
L 2284 0 
L 1503 0 
L 191 3500 
z
" transform="scale(0.015625)"/>
      <path id="DejaVuSans-65" d="M 3597 1894 
L 3597 1613 
L 953 1613 
Q 991 1019 1311 708 
Q 1631 397 2203 397 
Q 2534 397 2845 478 
Q 3156 559 3463 722 
L 3463 178 
Q 3153 47 2828 -22 
Q 2503 -91 2169 -91 
Q 1331 -91 842 396 
Q 353 884 353 1716 
Q 353 2575 817 3079 
Q 1281 3584 2069 3584 
Q 2775 3584 3186 3129 
Q 3597 2675 3597 1894 
z
M 3022 2063 
Q 3016 2534 2758 2815 
Q 2500 3097 2075 3097 
Q 1594 3097 1305 2825 
Q 1016 2553 972 2059 
L 3022 2063 
z
" transform="scale(0.015625)"/>
     </defs>
     <use xlink:href="#DejaVuSans-54"/>
     <use xlink:href="#DejaVuSans-72" x="46.333984"/>
     <use xlink:href="#DejaVuSans-61" x="87.447266"/>
     <use xlink:href="#DejaVuSans-69" x="148.726562"/>
     <use xlink:href="#DejaVuSans-6e" x="176.509766"/>
     <use xlink:href="#DejaVuSans-69" x="239.888672"/>
     <use xlink:href="#DejaVuSans-6e" x="267.671875"/>
     <use xlink:href="#DejaVuSans-67" x="331.050781"/>
     <use xlink:href="#DejaVuSans-20" x="394.527344"/>
     <use xlink:href="#DejaVuSans-4c" x="426.314453"/>
     <use xlink:href="#DejaVuSans-6f" x="480.277344"/>
     <use xlink:href="#DejaVuSans-73" x="541.458984"/>
     <use xlink:href="#DejaVuSans-73" x="593.558594"/>
     <use xlink:href="#DejaVuSans-20" x="645.658203"/>
     <use xlink:href="#DejaVuSans-43" x="677.445312"/>
     <use xlink:href="#DejaVuSans-75" x="747.269531"/>
     <use xlink:href="#DejaVuSans-72" x="810.648438"/>
     <use xlink:href="#DejaVuSans-76" x="851.761719"/>
     <use xlink:href="#DejaVuSans-65" x="910.941406"/>
    </g>
   </g>
   <g id="legend_1">
    <g id="patch_7">
     <path d="M 641.748186 62.79625 
L 731.326311 62.79625 
Q 733.326311 62.79625 733.326311 60.79625 
L 733.326311 32.44 
Q 733.326311 30.44 731.326311 30.44 
L 641.748186 30.44 
Q 639.748186 30.44 639.748186 32.44 
L 639.748186 60.79625 
Q 639.748186 62.79625 641.748186 62.79625 
z
" style="fill: #ffffff; opacity: 0.8; stroke: #cccccc; stroke-linejoin: miter"/>
    </g>
    <g id="line2d_52">
     <path d="M 643.748186 38.538437 
L 653.748186 38.538437 
L 663.748186 38.538437 
" style="fill: none; stroke: #0000ff; stroke-width: 1.5; stroke-linecap: square"/>
    </g>
    <g id="text_16">
     <!-- Contrastive -->
     <g transform="translate(671.748186 42.038437) scale(0.1 -0.1)">
      <defs>
       <path id="DejaVuSans-74" d="M 1172 4494 
L 1172 3500 
L 2356 3500 
L 2356 3053 
L 1172 3053 
L 1172 1153 
Q 1172 725 1289 603 
Q 1406 481 1766 481 
L 2356 481 
L 2356 0 
L 1766 0 
Q 1100 0 847 248 
Q 594 497 594 1153 
L 594 3053 
L 172 3053 
L 172 3500 
L 594 3500 
L 594 4494 
L 1172 4494 
z
" transform="scale(0.015625)"/>
      </defs>
      <use xlink:href="#DejaVuSans-43"/>
      <use xlink:href="#DejaVuSans-6f" x="69.824219"/>
      <use xlink:href="#DejaVuSans-6e" x="131.005859"/>
      <use xlink:href="#DejaVuSans-74" x="194.384766"/>
      <use xlink:href="#DejaVuSans-72" x="233.59375"/>
      <use xlink:href="#DejaVuSans-61" x="274.707031"/>
      <use xlink:href="#DejaVuSans-73" x="335.986328"/>
      <use xlink:href="#DejaVuSans-74" x="388.085938"/>
      <use xlink:href="#DejaVuSans-69" x="427.294922"/>
      <use xlink:href="#DejaVuSans-76" x="455.078125"/>
      <use xlink:href="#DejaVuSans-65" x="514.257812"/>
     </g>
    </g>
    <g id="line2d_53">
     <path d="M 643.748186 53.216563 
L 653.748186 53.216563 
L 663.748186 53.216563 
" style="fill: none; stroke: #ff0000; stroke-width: 1.5; stroke-linecap: square"/>
    </g>
    <g id="text_17">
     <!-- Supervised -->
     <g transform="translate(671.748186 56.716563) scale(0.1 -0.1)">
      <defs>
       <path id="DejaVuSans-53" d="M 3425 4513 
L 3425 3897 
Q 3066 4069 2747 4153 
Q 2428 4238 2131 4238 
Q 1616 4238 1336 4038 
Q 1056 3838 1056 3469 
Q 1056 3159 1242 3001 
Q 1428 2844 1947 2747 
L 2328 2669 
Q 3034 2534 3370 2195 
Q 3706 1856 3706 1288 
Q 3706 609 3251 259 
Q 2797 -91 1919 -91 
Q 1588 -91 1214 -16 
Q 841 59 441 206 
L 441 856 
Q 825 641 1194 531 
Q 1563 422 1919 422 
Q 2459 422 2753 634 
Q 3047 847 3047 1241 
Q 3047 1584 2836 1778 
Q 2625 1972 2144 2069 
L 1759 2144 
Q 1053 2284 737 2584 
Q 422 2884 422 3419 
Q 422 4038 858 4394 
Q 1294 4750 2059 4750 
Q 2388 4750 2728 4690 
Q 3069 4631 3425 4513 
z
" transform="scale(0.015625)"/>
       <path id="DejaVuSans-64" d="M 2906 2969 
L 2906 4863 
L 3481 4863 
L 3481 0 
L 2906 0 
L 2906 525 
Q 2725 213 2448 61 
Q 2172 -91 1784 -91 
Q 1150 -91 751 415 
Q 353 922 353 1747 
Q 353 2572 751 3078 
Q 1150 3584 1784 3584 
Q 2172 3584 2448 3432 
Q 2725 3281 2906 2969 
z
M 947 1747 
Q 947 1113 1208 752 
Q 1469 391 1925 391 
Q 2381 391 2643 752 
Q 2906 1113 2906 1747 
Q 2906 2381 2643 2742 
Q 2381 3103 1925 3103 
Q 1469 3103 1208 2742 
Q 947 2381 947 1747 
z
" transform="scale(0.015625)"/>
      </defs>
      <use xlink:href="#DejaVuSans-53"/>
      <use xlink:href="#DejaVuSans-75" x="63.476562"/>
      <use xlink:href="#DejaVuSans-70" x="126.855469"/>
      <use xlink:href="#DejaVuSans-65" x="190.332031"/>
      <use xlink:href="#DejaVuSans-72" x="251.855469"/>
      <use xlink:href="#DejaVuSans-76" x="292.96875"/>
      <use xlink:href="#DejaVuSans-69" x="352.148438"/>
      <use xlink:href="#DejaVuSans-73" x="379.931641"/>
      <use xlink:href="#DejaVuSans-65" x="432.03125"/>
      <use xlink:href="#DejaVuSans-64" x="493.554688"/>
     </g>
    </g>
   </g>
  </g>
 </g>
 <defs>
  <clipPath id="p2b6c32113c">
   <rect x="58.289155" y="25.44" width="680.037156" height="364.6"/>
  </clipPath>
 </defs>
</svg>
